<?xml version="1.0" encoding="utf-8"?>
<!-- Generator: Adobe Illustrator 24.0.0, SVG Export Plug-In . SVG Version: 6.00 Build 0)  -->
<svg version="1.1" id="Calque_1" xmlns="http://www.w3.org/2000/svg" xmlns:xlink="http://www.w3.org/1999/xlink" x="0px" y="0px"
	 viewBox="0 0 40 40" style="enable-background:new 0 0 40 40;" xml:space="preserve">
<style type="text/css">
	.st0{fill:#FFFFFF;}
</style>
<g>
	<path class="st0" d="M12,33.5v-18H6v18H12L12,33.5z M9,13c2.1,0,3.4-1.4,3.4-3.1c0-1.8-1.3-3.1-3.3-3.1C7,6.8,5.7,8.1,5.7,9.9
		C5.7,11.6,7,13,9,13L9,13L9,13z M15.3,33.5h6V23.4c0-0.5,0-1.1,0.2-1.5c0.4-1.1,1.4-2.2,3.1-2.2c2.2,0,3,1.7,3,4.1v9.6h6V23.1
		c0-5.5-3-8.1-6.9-8.1c-3.2,0-4.7,1.8-5.4,3h0v-2.6h-6C15.4,17.1,15.3,33.5,15.3,33.5L15.3,33.5z"/>
</g>
</svg>
