<?xml version="1.0" encoding="utf-8"?>
<!-- Generator: Adobe Illustrator 24.0.0, SVG Export Plug-In . SVG Version: 6.00 Build 0)  -->
<svg version="1.1" id="Calque_1" xmlns="http://www.w3.org/2000/svg" xmlns:xlink="http://www.w3.org/1999/xlink" x="0px" y="0px"
	 viewBox="0 0 331 581" style="enable-background:new 0 0 331 581;" xml:space="preserve">
<style type="text/css">
	.st0{fill:#232A49;}
	.st1{fill:#2D5335;}
	.st2{fill:#A8BC96;}
	.st3{fill:#203B8B;}
	.st4{fill:#698F5B;}
	.st5{fill:#FFFFFF;}
</style>
<g>
	<path class="st0" d="M186.7,452.7v23.5c-1-0.4-2-0.9-3-1.2c-5.9-2.2-12.2-3.4-18.8-3.4c-0.9,0-1.8,0-2.8,0.1c-0.7,0-1.4,0.1-2,0.1
		c-0.7,0.1-1.3,0.1-2,0.2c0,0,0,0,0,0c-0.5,0.1-0.9,0.1-1.3,0.2c-1.3,0.2-2.7,0.5-4,0.8c-0.3,0.1-0.6,0.1-0.9,0.2
		c-0.3,0.1-0.5,0.1-0.8,0.2c-0.3,0.1-0.6,0.2-0.8,0.2c-0.4,0.1-0.9,0.2-1.3,0.4c-0.4,0.1-0.8,0.3-1.3,0.4c-0.3,0.1-0.7,0.2-1,0.3
		c-0.9,0.3-1.8,0.7-2.7,1.1c-0.1,0.1-0.3,0.1-0.4,0.2v-23.3H186.7z"/>
</g>
<path class="st1" d="M193,542.9c-6,9.9-16.8,16.5-29.2,16.5c-18.8,0-34.1-15.3-34.1-34.1c0-16.8,12.2-30.8,28.2-33.6
	c-14.2,0.4-29.6,4.2-39.9,7.3c-4.4,7.8-6.8,16.7-6.8,26.3c0,29.7,24.1,53.8,53.8,53.8c18.3,0,34.4-9.1,44.1-23.1L193,542.9z
	 M189.4,502.8c-2.6-3.9-6.4-6.5-10.9-8.3C182.7,496.5,186.4,499.4,189.4,502.8z M130.2,484.2c0.9-0.8,1.8-1.5,2.7-2.2
	C132,482.8,131.1,483.5,130.2,484.2z M122.9,491.8c1.1-1.4,2.3-2.7,3.5-3.9C125.2,489.1,124,490.4,122.9,491.8z"/>
<path class="st2" d="M218.7,525.3c0,0.5,0,0.9,0,1.4c0,0.5,0,0.9-0.1,1.4v0c0,0.4,0,0.8-0.1,1.2c-0.2,2.9-0.7,5.8-1.3,8.6
	c-0.2,0.6-0.3,1.3-0.5,1.9c-0.2,0.6-0.4,1.3-0.6,2c-0.2,0.5-0.3,1-0.5,1.4c-0.8,2.4-1.9,4.7-3,6.9c-0.5,0.9-1,1.8-1.5,2.6
	c-0.7,1.1-1.4,2.3-2.2,3.3L193,542.9c3.1-5.1,4.9-11.2,4.9-17.6c0-8.6-3.2-16.5-8.5-22.5c-2.6-3.9-6.4-6.5-10.9-8.3c0,0,0,0,0,0
	c-4.4-2.1-9.4-3.3-14.6-3.3c-2,0-4,0.2-5.9,0.5c-14.2,0.4-29.6,4.2-39.9,7.3c0.3-0.5,0.6-1,0.9-1.5c0,0,0-0.1,0.1-0.1
	c0.3-0.5,0.6-0.9,0.9-1.4c1-1.5,2-2.9,3.1-4.3c1.1-1.4,2.3-2.7,3.5-3.9c0.8-0.8,1.7-1.7,2.5-2.4c0.4-0.4,0.9-0.8,1.3-1.2
	c0.9-0.8,1.8-1.5,2.7-2.2c0.9-0.7,1.9-1.4,2.9-2c0.5-0.3,1.1-0.7,1.6-1c0.5-0.3,1-0.6,1.4-0.8c0.9-0.5,1.8-1,2.7-1.4
	c0.1,0,0.1,0,0.2-0.1c0.3-0.1,0.5-0.3,0.8-0.4c0.1-0.1,0.3-0.1,0.4-0.2c0.3-0.2,0.7-0.3,1-0.4c0.9-0.4,1.8-0.7,2.7-1.1
	c0.3-0.1,0.7-0.2,1-0.3c0.4-0.2,0.8-0.3,1.3-0.4c0.4-0.1,0.8-0.3,1.3-0.4c0.3-0.1,0.6-0.2,0.8-0.2c0.3-0.1,0.5-0.1,0.8-0.2
	c0.3-0.1,0.6-0.2,0.9-0.2c1.3-0.3,2.6-0.6,4-0.8c0.4-0.1,0.9-0.1,1.3-0.2c0,0,0,0,0,0c0.7-0.1,1.3-0.2,2-0.2c0.7-0.1,1.4-0.1,2-0.1
	c0.9-0.1,1.8-0.1,2.8-0.1c6.6,0,13,1.2,18.8,3.4c1.5,0.5,2.9,1.2,4.3,1.8c0.5,0.2,0.9,0.5,1.4,0.7c0.8,0.4,1.5,0.8,2.3,1.2
	s1.5,0.9,2.2,1.4C208.8,489.6,218.7,506.3,218.7,525.3z"/>
<g>
	<circle class="st0" cx="163.8" cy="525.3" r="34.1"/>
</g>
<g>
	<rect x="112.9" y="324.9" class="st0" width="105.1" height="28.7"/>
</g>
<path class="st1" d="M39.7,44.7v81.8c-5.9,3.2-11.3,7.4-15.8,12.3V45.8c2.1,0.8,4.4,1.2,6.8,1.2C33.9,47,37,46.2,39.7,44.7z"/>
<g>
	<circle class="st0" cx="30.6" cy="27.3" r="19.6"/>
</g>
<g>
	<path class="st0" d="M54,121.1v117c-26.4-6.4-46-30.1-46-58.5C8,151.2,27.6,127.4,54,121.1z"/>
</g>
<g>
	<path class="st0" d="M320.8,179.6c0,2.5-0.2,4.9-0.4,7.3c-0.1,0.9-0.3,1.9-0.4,2.8c-0.1,0.4-0.1,0.8-0.2,1.2c0,0.1-0.1,0.3-0.1,0.4
		c-0.1,0.4-0.2,0.8-0.3,1.3c-0.1,0.4-0.2,0.9-0.3,1.3c-0.1,0.5-0.3,1-0.4,1.5c-0.1,0.4-0.2,0.9-0.4,1.3c-0.2,0.5-0.3,1.1-0.5,1.6
		c-0.3,0.8-0.5,1.6-0.8,2.4c-0.2,0.4-0.3,0.9-0.5,1.3c-0.3,0.9-0.7,1.7-1.1,2.5c-1,2.1-2,4.1-3.2,6.1c-0.2,0.4-0.5,0.8-0.7,1.2
		c-0.5,0.8-1,1.5-1.5,2.3c-0.3,0.4-0.5,0.8-0.8,1.1c-0.3,0.4-0.5,0.7-0.8,1.1c0,0,0,0,0,0.1c-0.3,0.3-0.5,0.7-0.8,1
		c-0.3,0.4-0.6,0.7-0.9,1.1c-0.3,0.3-0.6,0.7-0.9,1c-0.3,0.4-0.6,0.7-0.9,1c-7.1,7.8-16.3,13.6-26.7,16.8V122
		C302.8,129.5,320.8,152.4,320.8,179.6z"/>
</g>
<path class="st3" d="M320.8,179.6c0,2.5-0.2,4.9-0.4,7.3c-0.1,0.9-0.3,1.9-0.4,2.8c-0.1,0.4-0.1,0.8-0.2,1.2c0,0.1-0.1,0.3-0.1,0.4
	c-0.1,0.4-0.2,0.8-0.3,1.3c-0.1,0.4-0.2,0.9-0.3,1.3c-0.1,0.5-0.3,1-0.4,1.5c-0.1,0.4-0.2,0.9-0.4,1.3c-0.2,0.5-0.3,1.1-0.5,1.6
	c-0.3,0.8-0.5,1.6-0.8,2.4c-0.2,0.4-0.3,0.9-0.5,1.3c-0.3,0.9-0.7,1.7-1.1,2.5c-1,2.1-2,4.1-3.2,6.1c-0.2,0.4-0.5,0.8-0.7,1.2
	c-0.5,0.8-1,1.5-1.5,2.3c-0.3,0.4-0.5,0.8-0.8,1.1c-0.3,0.4-0.5,0.7-0.8,1.1c0,0,0,0,0,0.1c-0.3,0.3-0.5,0.7-0.8,1
	c-0.3,0.4-0.6,0.7-0.9,1.1c-0.3,0.3-0.6,0.7-0.9,1c-0.3,0.4-0.6,0.7-0.9,1c0.8-27-2.4-56.1-13.5-70.4c-3.5-4.6-8.1-8.5-13.2-11.9
	v-16C302.8,129.5,320.8,152.4,320.8,179.6z"/>
<path class="st4" d="M229.8,329.9H102.4c-26.7,0-48.4-21.6-48.4-48.4V95.3C54,68.6,75.7,47,102.4,47h127.4
	c26.7,0,48.4,21.6,48.4,48.4v186.2C278.1,308.3,256.5,329.9,229.8,329.9z"/>
<path class="st1" d="M235.9,284.1L221,294.8l-111.2,0.2l-15.3-34.7l15.3-34.7l2.3-1.2c0.4-0.2,0.7-0.7,0.6-1.2l-6.8-31.8L89.2,174
	V48.7C68.9,54.3,54,72.9,54,95v190.2c0,24.7,20,44.7,44.7,44.7h131.3c25.9,0,46.9-20.4,48-46L235.9,284.1z"/>
<path class="st3" d="M112.3,191.5h107.3c17.2,0,31.1-13.9,31.1-31.1v0c0-17.2-13.9-31.1-31.1-31.1H112.3
	c-17.2,0-31.1,13.9-31.1,31.1v0C81.2,177.5,95.1,191.5,112.3,191.5z"/>
<g>
	<path class="st0" d="M219.6,195.3H112.3c-19.3,0-34.9-15.7-34.9-34.9s15.7-34.9,34.9-34.9h107.3c19.3,0,34.9,15.7,34.9,34.9
		S238.8,195.3,219.6,195.3z M112.3,133C97.2,133,85,145.3,85,160.3c0,15.1,12.3,27.3,27.3,27.3h107.3c15.1,0,27.3-12.3,27.3-27.3
		c0-15.1-12.3-27.3-27.3-27.3H112.3z"/>
</g>
<rect x="119.7" y="140.7" class="st5" width="86.3" height="39.2"/>
<path d="M119.7,140.7c-14.5,0-25.3,15.7-16.4,31c1.2,2.1,3,3.8,5,5c15.3,8.9,31-1.9,31-16.4h-15.4c-2.3,0-4.2-1.9-4.2-4.2V140.7z"/>
<path d="M205.9,140.7v15.5c0,2.3-1.8,4.1-4.1,4.1h-15.5c0,0,0,0,0,0c0,11.6,10,20.8,21.9,19.5c9-1,16.3-8.3,17.3-17.3
	C226.7,150.7,217.5,140.7,205.9,140.7C205.9,140.7,205.9,140.7,205.9,140.7z"/>
<path class="st5" d="M109.9,225.6c-17.3,2.1-30.7,16.8-30.7,34.7c0,17.9,13.4,32.6,30.7,34.7V225.6z"/>
<rect x="124.9" y="225.3" class="st5" width="33.2" height="69.9"/>
<rect x="173.2" y="225.3" class="st5" width="32.7" height="69.9"/>
<path class="st5" d="M221,225.7v69c16.8-2.6,29.7-17,29.7-34.5C250.7,242.7,237.8,228.3,221,225.7z"/>
<path class="st4" d="M32.1,368c0,0-27.9,9.1-27.9,22.3c0,13.2,3.8,70.6,3.8,70.6l24.1-15.1l21.9,1.8l0-61L32.1,368z"/>
<path class="st1" d="M51.5,447.3c-29.7-31.9-40.9-52-45.1-63.5c-1.4,2-2.2,4.2-2.2,6.4c0,13.2,3.8,70.6,3.8,70.6l24.1-15.1
	L51.5,447.3z"/>
<g>
	<circle class="st0" cx="45.8" cy="376.4" r="24"/>
</g>
<path class="st3" d="M61.9,358.6c-4.3-3.9-9.9-6.2-16.1-6.2c-11,0-20.3,7.4-23.1,17.5C30.9,366,45.8,360.2,61.9,358.6z"/>
<g>
	<path class="st0" d="M16.3,496.4c1.4,0.9,3,1.5,4.8,1.5c4.8,0,8.7-3.9,8.7-8.7c0-1.3-0.3-2.4-0.8-3.5c-5.2-2.9-8.8-8.4-8.8-14.8
		c0-9.3,7.6-16.9,16.9-16.9c9.3,0,16.9,7.6,16.9,16.9c0,1.8-0.3,3.6-0.8,5.3c-0.1,0.4-0.1,0.7-0.1,1.1c0,4.9,4,8.9,8.9,8.9
		c3.1,0,5.8-1.6,7.4-4c1-3.1,1.5-6.4,1.5-9.8c0-18-14.6-32.6-32.6-32.6S5.7,454.4,5.7,472.4C5.7,481.9,9.8,490.5,16.3,496.4z"/>
</g>
<path class="st3" d="M69.3,482.2c1-3.1,1.5-6.4,1.5-9.8c0-18-14.6-32.6-32.6-32.6c-5.2,0-10.1,1.3-14.5,3.4c-0.2,3.9,0.5,8.7,3.4,14
	c2.8-2,6.2-3.3,9.9-3.3c9.3,0,16.9,7.6,16.9,16.9c0,1.8-0.3,3.6-0.8,5.3c-0.1,0.4-0.1,0.7-0.1,1.1c0,4.9,4,8.9,8.9,8.9
	C65,486.2,67.7,484.6,69.3,482.2z"/>
<path class="st4" d="M299.1,368c0,0,27.9,9.1,27.9,22.3c0,13.2-3.8,70.6-3.8,70.6l-24.1-15.1l-21.9,1.8l0-61L299.1,368z"/>
<path class="st1" d="M282.1,382.3l-4.9,4.2v61l21.9-1.8l24.1,15.1c0,0,0.3-4.6,0.7-11.4C298.3,435.2,285.8,396.1,282.1,382.3z"/>
<path class="st2" d="M327,390.3c0-13.2-27.9-22.3-27.9-22.3l-1.9,1.6c5.7,3.9,14.9,6.8,18.9,18.6c3.6,10.6,1.3,45.6,8.3,53.8
	C325.5,424.1,327,398.6,327,390.3z"/>
<g>
	<path class="st0" d="M256.7,480.3c0.6,1.5,1.7,2.9,3.2,3.9c4,2.6,9.4,1.5,12-2.5c0.7-1.1,1.1-2.2,1.3-3.4
		c-2.8-5.3-2.7-11.9,0.8-17.2c5.1-7.8,15.6-10,23.4-4.9c7.8,5.1,10,15.6,4.9,23.4c-1,1.5-2.2,2.8-3.6,3.9c-0.3,0.3-0.5,0.6-0.7,0.9
		c-2.7,4.1-1.5,9.6,2.6,12.3c2.6,1.7,5.7,1.8,8.3,0.7c2.5-2.1,4.8-4.5,6.6-7.4c9.9-15,5.6-35.2-9.4-45.1s-35.2-5.6-45.1,9.4
		C255.7,462.3,254.5,471.7,256.7,480.3z"/>
</g>
<path class="st3" d="M308.8,497.4c2.5-2.1,4.8-4.5,6.6-7.4c9.9-15,5.6-35.2-9.4-45.1c-4.4-2.9-9.1-4.5-14-5.1
	c-2.3,3.1-4.3,7.5-4.8,13.6c3.5-0.2,7,0.7,10.1,2.7c7.8,5.1,10,15.6,4.9,23.4c-1,1.5-2.2,2.8-3.6,3.9c-0.3,0.3-0.5,0.6-0.7,0.9
	c-2.7,4.1-1.5,9.6,2.6,12.3C303,498.4,306.2,498.6,308.8,497.4z"/>
<g>
	<circle class="st0" cx="278.1" cy="376.4" r="24"/>
</g>
<path class="st3" d="M278.1,352.4c-9,0-16.9,5-21,12.3c9.1-0.9,29.6-0.5,44.4,16.9c0.4-1.7,0.6-3.4,0.6-5.2
	C302.1,363.1,291.3,352.4,278.1,352.4z"/>
<path class="st4" d="M216.7,452.7H115.4c-33.9,0-61.4-27.5-61.4-61.4v-28.5c0-6.2,5-11.3,11.3-11.3h201.5c6.2,0,11.3,5,11.3,11.3
	v28.5C278.1,425.2,250.6,452.7,216.7,452.7z"/>
<path class="st1" d="M205.9,414.4c0,0-56.1-17.7-93.1-19.2c-25.6-1-37.2-27.5-41.9-43.6h-5.8c-6.2,0-11.2,5-11.2,11.2V392
	c0,33.5,27.1,60.6,60.6,60.6h102.8c16.2,0,30.9-6.4,41.8-16.8C221.7,430.3,205.9,414.4,205.9,414.4z"/>
<g>
	<path class="st0" d="M228.2,428H103.2c-9.9,0-17.9-8-17.9-17.9v-26.9c0-4.2,3.4-7.6,7.6-7.6h145.5c4.2,0,7.6,3.4,7.6,7.6v26.9
		C246.1,420,238,428,228.2,428z"/>
</g>
<path class="st3" d="M231.5,375.6H106.6c1.3,6.7,4.7,16.6,14.2,16.6c14.3,0,100.2,0,100.2,0s17.2-2.1,24.3,8.7
	c0.5-2.3,0.7-4.6,0.7-7v-3.8C246.1,382.1,239.6,375.6,231.5,375.6z"/>
<path class="st2" d="M219,368H74.2c-1.1,0-2.1-0.9-2.1-2.1v-19.8c0-1.1,0.9-2.1,2.1-2.1H219c1.1,0,2.1,0.9,2.1,2.1v19.8
	C221,367.1,220.1,368,219,368z"/>
<path class="st2" d="M257,368h-26.9c-1.1,0-2-0.9-2-2v-19.9c0-1.1,0.9-2,2-2H257c1.1,0,2,0.9,2,2V366C259.1,367.1,258.2,368,257,368
	z"/>
<path class="st2" d="M209.9,71.9H96.1c-2.2,0-4.1-1.8-4.1-4.1v-7.7c0-2.2,1.8-4.1,4.1-4.1h113.8c2.2,0,4.1,1.8,4.1,4.1v7.7
	C214,70,212.2,71.9,209.9,71.9z"/>
<path class="st2" d="M223.8,60.1c0-2.4,1.9-4.3,4.3-4.3c6,0.1,17.3,1.4,26,9.2c7.6,6.9,10.8,15.5,12.1,20.8c0.6,2.5-1.1,5-3.7,5.3
	l-6.4,0.6c-1.9,0.2-3.7-0.9-4.4-2.6c-1.3-3.2-4.2-8.5-10.2-12.9c-4.4-3.3-9.9-4.2-13.6-4.4c-2.3-0.1-4-2-4-4.3V60.1z"/>
</svg>
